<svg width="100" height="72" viewBox="0 0 100 72" fill="none" xmlns="http://www.w3.org/2000/svg">
<g clip-path="url(#clip0_124_468)">
<path d="M82.5 63H17.5C16.125 63 15 64.0125 15 65.25V69.75C15 70.9875 16.125 72 17.5 72H82.5C83.875 72 85 70.9875 85 69.75V65.25C85 64.0125 83.875 63 82.5 63ZM92.5 18C88.3594 18 85 21.0234 85 24.75C85 25.7484 85.25 26.6766 85.6875 27.5344L74.375 33.6375C71.9688 34.9312 68.8594 34.2 67.4687 32.0063L54.7344 11.9531C56.4062 10.7156 57.5 8.85938 57.5 6.75C57.5 3.02344 54.1406 0 50 0C45.8594 0 42.5 3.02344 42.5 6.75C42.5 8.85938 43.5938 10.7156 45.2656 11.9531L32.5312 32.0063C31.1406 34.2 28.0156 34.9312 25.625 33.6375L14.3281 27.5344C14.75 26.6906 15.0156 25.7484 15.0156 24.75C15.0156 21.0234 11.6562 18 7.51562 18C3.375 18 0 21.0234 0 24.75C0 28.4766 3.35938 31.5 7.5 31.5C7.90625 31.5 8.3125 31.4437 8.70313 31.3875L20 58.5H80L91.2969 31.3875C91.6875 31.4437 92.0938 31.5 92.5 31.5C96.6406 31.5 100 28.4766 100 24.75C100 21.0234 96.6406 18 92.5 18Z" fill="#742020"/>
</g>
<defs>
<clipPath id="clip0_124_468">
<rect width="100" height="72" fill="white"/>
</clipPath>
</defs>
</svg>
